<svg xmlns="http://www.w3.org/2000/svg" width="25" height="25" viewBox="0 0 25 25"><defs><style>.cls-1{fill:#fff;}.cls-2{fill:#33b0e6;}.cls-3{fill:#00a4e5;}.cls-4{fill:none;stroke:#33b0e6;stroke-miterlimit:10;}</style></defs><g id="レイヤー_2" data-name="レイヤー 2"><g id="レイヤー_1-2" data-name="レイヤー 1"><path class="cls-1" d="M12.5.5a12,12,0,1,1-12,12A12,12,0,0,1,12.5.5Zm7,7.39a4.47,4.47,0,0,0,.25-.49,6.7,6.7,0,0,1-1.8.7,2.73,2.73,0,0,0-2.7-.8,3.13,3.13,0,0,0-1.27.61,1.93,1.93,0,0,0-.3.27l-.17.18-.15.2a2.82,2.82,0,0,0-.51,2.23A7.94,7.94,0,0,1,7,7.8l0,.07L6.9,7.8a2.75,2.75,0,0,0,.89,3.79h0a5,5,0,0,1-1-.26h0l-.2-.13v0l-.1,0A3,3,0,0,0,8,13.66l.26.13a.85.85,0,0,0,.22.09A2.29,2.29,0,0,0,8.8,14l-.07,0a6.24,6.24,0,0,1-1.13.07v0l-.11,0a2.88,2.88,0,0,0,2.7,2,5.08,5.08,0,0,1-.7.52l-.05,0a5.66,5.66,0,0,1-3.35.65H6a8.11,8.11,0,0,0,3.89,1.29,6.89,6.89,0,0,0,.91,0h.1a8,8,0,0,0,7.62-6.9,8.46,8.46,0,0,0,.08-1.6A5,5,0,0,0,20,8.6a4.86,4.86,0,0,1-1.55.4,3.22,3.22,0,0,0,1-1.09S19.45,7.9,19.45,7.89Z"/><path class="cls-2" d="M19.6,7.5a2.26,2.26,0,0,1-.15.39s0,0,0,0A3.28,3.28,0,0,1,18.4,9h.05l-.15.1A4.8,4.8,0,0,0,20,8.6a6.73,6.73,0,0,1-1.4,1.5,8.46,8.46,0,0,1-.08,1.6,8.17,8.17,0,0,1-7.72,6.9,6.89,6.89,0,0,1-.91,0,8.35,8.35,0,0,1-3.77-1.28,5.47,5.47,0,0,0,3.33-.66l.05,0a6.84,6.84,0,0,0,.8-.52,2.87,2.87,0,0,1-2.69-2A2,2,0,0,0,8.73,14a.86.86,0,0,0,.17,0,2.49,2.49,0,0,1-.47-.12l-.22-.09L8,13.66A2.89,2.89,0,0,1,6.6,11.24a.88.88,0,0,0,.2.09h0a1.87,1.87,0,0,0,1,.26H7.9A2.75,2.75,0,0,1,7,7.87,8.12,8.12,0,0,0,12.8,10.8h.1a2.7,2.7,0,0,1,.41-2.24l.15-.2.17-.18a1.93,1.93,0,0,1,.3-.27A2.75,2.75,0,0,1,15.1,7.4a3,3,0,0,1,2.7.8A5.63,5.63,0,0,0,19.6,7.5Z"/><path class="cls-3" d="M18.4,9a3.28,3.28,0,0,0,1-1.09,3.22,3.22,0,0,1-1,1.09Z"/><path class="cls-3" d="M13.63,8.18l-.17.18Z"/><path class="cls-3" d="M12.9,10.8h-.1a2.82,2.82,0,0,1,.51-2.23A2.7,2.7,0,0,0,12.9,10.8Z"/><path class="cls-3" d="M10.3,16.1a6.84,6.84,0,0,1-.8.52,5.08,5.08,0,0,0,.7-.52,2.88,2.88,0,0,1-2.7-2l.11,0A2.87,2.87,0,0,0,10.3,16.1Z"/><path class="cls-3" d="M8.9,14a.86.86,0,0,1-.17,0l.07,0a2.29,2.29,0,0,1-.37-.12A2.49,2.49,0,0,0,8.9,14Z"/><path class="cls-3" d="M8.21,13.79l.22.09A.85.85,0,0,1,8.21,13.79Z"/><path class="cls-3" d="M7.9,11.6H7.79A2.75,2.75,0,0,1,6.9,7.8L7,7.87A2.75,2.75,0,0,0,7.9,11.6Z"/><path class="cls-3" d="M6.6,11.24A2.89,2.89,0,0,0,8,13.66,3,3,0,0,1,6.5,11.2Z"/><path class="cls-3" d="M6.81,11.33a5,5,0,0,0,1,.26A1.87,1.87,0,0,1,6.81,11.33Z"/><path class="cls-3" d="M6.12,17.31a8.35,8.35,0,0,0,3.77,1.28A8.11,8.11,0,0,1,6,17.3Z"/><circle class="cls-4" cx="12.5" cy="12.5" r="12"/></g></g></svg>