<svg xmlns="http://www.w3.org/2000/svg" xmlns:xlink="http://www.w3.org/1999/xlink" width="25" height="25" viewBox="0 0 25 25"><defs><style>.cls-1{fill:#fff;}.cls-2{fill:#33b0e6;}.cls-3{fill:url(#名称未設定グラデーション_3);}.cls-4{fill:url(#名称未設定グラデーション_3-2);}.cls-5{fill:url(#名称未設定グラデーション_3-3);}.cls-6{fill:url(#名称未設定グラデーション_3-4);}.cls-7{fill:url(#名称未設定グラデーション_3-5);}.cls-8{fill:url(#名称未設定グラデーション_3-6);}.cls-9{fill:none;stroke:#33b0e6;stroke-miterlimit:10;}</style><linearGradient id="名称未設定グラデーション_3" x1="16.3" y1="24.52" x2="18.9" y2="-0.11" gradientUnits="userSpaceOnUse"><stop offset="0" stop-color="#fff"/><stop offset="0.14" stop-color="#ffca2a"/><stop offset="0.37" stop-color="#e90041"/><stop offset="0.72" stop-color="#b500d4"/><stop offset="0.85" stop-color="#510094"/><stop offset="0.95" stop-color="#000baa"/></linearGradient><linearGradient id="名称未設定グラデーション_3-2" x1="14.97" y1="24.38" x2="17.58" y2="-0.25" xlink:href="#名称未設定グラデーション_3"/><linearGradient id="名称未設定グラデーション_3-3" x1="16.44" y1="24.53" x2="19.04" y2="-0.1" xlink:href="#名称未設定グラデーション_3"/><linearGradient id="名称未設定グラデーション_3-4" x1="15.11" y1="24.39" x2="17.71" y2="-0.24" xlink:href="#名称未設定グラデーション_3"/><linearGradient id="名称未設定グラデーション_3-5" x1="14.14" y1="24.29" x2="16.75" y2="-0.34" xlink:href="#名称未設定グラデーション_3"/><linearGradient id="名称未設定グラデーション_3-6" x1="11.98" y1="24.06" x2="14.59" y2="-0.57" xlink:href="#名称未設定グラデーション_3"/></defs><g id="レイヤー_2" data-name="レイヤー 2"><g id="レイヤー_1-2" data-name="レイヤー 1"><path class="cls-1" d="M12.5.5a12,12,0,1,1-12,12A12,12,0,0,1,12.5.5Zm3.4,19a3.9,3.9,0,0,0,3.6-4.1V9.1a3.9,3.9,0,0,0-4.1-3.6H9.1A3.9,3.9,0,0,0,5.5,9.6v6.3a3.9,3.9,0,0,0,4.1,3.6h6.3Z"/><path class="cls-2" d="M19.5,15.4a3.9,3.9,0,0,1-3.6,4.1H9.6a3.9,3.9,0,0,1-4.1-3.6V9.6A3.9,3.9,0,0,1,9.1,5.5h6.3a3.9,3.9,0,0,1,4.1,3.6v6.3ZM18.2,9.7A2.78,2.78,0,0,0,18,8.51.44.44,0,0,0,18,8.35,2.5,2.5,0,0,0,15.8,6.8H9.7A2.62,2.62,0,0,0,6.8,9.2v6.1a2.62,2.62,0,0,0,2.4,2.9h6.1a3.11,3.11,0,0,0,1-.09,2.55,2.55,0,0,0,1.93-2.29V9.7Z"/><path class="cls-1" d="M18,8.51A2.78,2.78,0,0,1,18.2,9.7v6.12a2.69,2.69,0,0,1-1.93,2.29,3.11,3.11,0,0,1-1,.09H9.2a2.62,2.62,0,0,1-2.4-2.9V9.2A2.62,2.62,0,0,1,9.7,6.8h6.1A2.69,2.69,0,0,1,18,8.35ZM17,8.8a.88.88,0,0,0,0-.16A.79.79,0,0,0,16.36,8L16.2,8a.78.78,0,0,0-.47.15.61.61,0,0,0-.19.2.64.64,0,0,0-.08.14v0a.93.93,0,0,0,0,.29.88.88,0,0,0,0,.16.79.79,0,0,0,.62.62l.16,0a.78.78,0,0,0,.47-.15.61.61,0,0,0,.19-.2h0a.54.54,0,0,0,.07-.13v0A.93.93,0,0,0,17,8.8Zm-4.5,7.3a3.6,3.6,0,1,0-3.6-3.6A3.59,3.59,0,0,0,12.5,16.1Z"/><path class="cls-3" d="M18,8.35a.44.44,0,0,1,.06.16Z"/><path class="cls-2" d="M17,8.64a.88.88,0,0,1,0,.16.93.93,0,0,1-.05.29v0a.54.54,0,0,1-.07.13h0a1.19,1.19,0,0,1-.19.2.78.78,0,0,1-.47.15l-.16,0a.82.82,0,0,1-.64-.78.93.93,0,0,1,0-.29v0a1,1,0,0,1,.08-.14,1.19,1.19,0,0,1,.19-.2A.78.78,0,0,1,16.2,8l.16,0A.88.88,0,0,1,17,8.64Z"/><path class="cls-4" d="M16.36,8a.79.79,0,0,1,.62.62A.88.88,0,0,0,16.36,8Z"/><path class="cls-5" d="M18.2,15.82a2.55,2.55,0,0,1-1.93,2.29A2.69,2.69,0,0,0,18.2,15.82Z"/><path class="cls-2" d="M16.1,12.5a3.6,3.6,0,1,1-3.6-3.6A3.59,3.59,0,0,1,16.1,12.5Zm-3.6,2.3a2.26,2.26,0,0,0,2.3-2.3,2.36,2.36,0,0,0-.7-1.6,1.89,1.89,0,0,0-1.38-.69H12.5a2.3,2.3,0,0,0,0,4.6Z"/><path class="cls-6" d="M15.8,6.8A2.5,2.5,0,0,1,18,8.35,2.69,2.69,0,0,0,15.8,6.8Z"/><path class="cls-7" d="M15.42,9a.88.88,0,0,0,.62.62A.79.79,0,0,1,15.42,9Z"/><path class="cls-1" d="M14.8,12.5a2.3,2.3,0,1,1-2.3-2.3h.22a2.46,2.46,0,0,1,1.38.69A2.36,2.36,0,0,1,14.8,12.5Z"/><path class="cls-8" d="M12.72,10.21a1.89,1.89,0,0,1,1.38.69A2.46,2.46,0,0,0,12.72,10.21Z"/><circle class="cls-9" cx="12.5" cy="12.5" r="12"/></g></g></svg>