<svg xmlns="http://www.w3.org/2000/svg" width="25" height="25" viewBox="0 0 25 25"><defs><style>.cls-1{fill:#fff;}.cls-2{fill:#33b0e6;}.cls-3{fill:none;stroke:#33b0e6;stroke-miterlimit:10;}</style></defs><g id="レイヤー_2" data-name="レイヤー 2"><g id="レイヤー_1-2" data-name="レイヤー 1"><path class="cls-1" d="M12.5.5a12,12,0,1,1-12,12A12,12,0,0,1,12.5.5Zm3,8v-3h-2c-2.1,0-3,.9-3,2.7v2.3h-2v2h2v7h3v-7h1.8l.2-2h-2V9.3c0-.6.1-.8.6-.8Z"/><path class="cls-2" d="M15.5,5.5v3H14.1c-.5,0-.6.2-.6.8v1.2h2l-.2,2H13.5v7h-3v-7h-2v-2h2V8.2c0-1.8.9-2.7,3-2.7Z"/><circle class="cls-3" cx="12.5" cy="12.5" r="12"/></g></g></svg>